<?xml version="1.0" encoding="utf-8"?>
<!-- Generator: Adobe Illustrator 25.4.1, SVG Export Plug-In . SVG Version: 6.00 Build 0)  -->
<svg version="1.1" id="Layer_1" xmlns="http://www.w3.org/2000/svg" xmlns:xlink="http://www.w3.org/1999/xlink" x="0px" y="0px"
	 viewBox="0 0 150.2 150.2" style="enable-background:new 0 0 150.2 150.2;" xml:space="preserve">
<style type="text/css">
	.st0{fill:none;stroke:#EF3D23;stroke-width:6;stroke-miterlimit:10;}
	.st1{fill:#f9f9f9;}
</style>
<path class="st0" d="M15.1,50.4v57c0,3.8,2,7.3,5.3,9.2l49.4,28.5c3.3,1.9,7.3,1.9,10.6,0l49.4-28.5c3.3-1.9,5.3-5.4,5.3-9.2v-57
	c0-3.8-2-7.3-5.3-9.2L80.4,12.7c-3.3-1.9-7.3-1.9-10.6,0L20.4,41.2C17.1,43.1,15.1,46.6,15.1,50.4z"/>
<g>
	<path class="st1" d="M31.7,60.1v-1.6c0-0.9-0.1-1.6-0.2-1.8c-0.1-0.3-0.4-0.6-0.9-1.1l-0.5-0.5c-0.4-0.4-0.6-0.9-0.5-1.5
		c0.1-0.8,0.3-1.6,0.5-2.4c0.3-1,0.7-2.3,1.2-4c0.2-0.5,0.6-0.9,1.1-1.1l0.4-0.1c0.3-0.1,0.7-0.1,1.1,0.1l1.7,0.7
		c0.4,0.1,0.9,0.2,1.5,0.2s1.7,0,3.3,0h9.5c2.5,0,4.4,0.4,5.7,1.1c1.3,0.7,2.3,1.9,2.8,3.6c0.5,1.7,0.8,4.1,0.8,7.1
		c0,2.8,0,6.1-0.1,9.9c0,1.5-0.1,2.9-0.1,4.1c-0.1,2.5-2.2,4.5-4.7,4.5H36.2c-2.6,0-4.7-2.1-4.7-4.7L31.7,60.1z M52.5,68.2v-1.9
		c0-2.3-0.1-4.1-0.2-5.6c-0.1-1.3-0.3-2.3-0.5-2.9c-0.2-0.6-0.6-1.1-1.1-1.3s-1.3-0.4-2.4-0.4h-8c-0.9,0-1.7,0.8-1.7,1.7l0.4,8.7
		c0,0.9,0.8,1.6,1.7,1.6L52.5,68.2L52.5,68.2z"/>
	<path class="st1" d="M118.4,86c0.7,1.1,1.1,2.6,1.1,4.5c0,1.8-0.4,4.6-1.3,8.5c-0.8,3.6-1.6,6.4-2.4,8.4c-0.1,0.3-0.3,0.5-0.5,0.6
		c-1.8,1.6-4.6,3.2-8.4,4.9c-3.9,1.8-8,3.3-12.3,4.5c-0.2,0-0.3,0.1-0.5,0.1h-0.2c-0.9,0-1.7-0.7-1.7-1.7V110c0-0.7,0.5-1.4,1.2-1.6
		c2.1-0.6,4-1.2,5.6-1.8c0.8-0.3,1.3-1.2,1-2l-3-10.3c-0.3-0.9-0.5-1.5-0.8-1.8s-1-0.9-2.2-1.6l-0.5-0.3c-0.6-0.4-0.9-1.2-0.7-1.9
		c0.7-2,1.4-3.8,2.2-5.5c0.2-0.4,0.6-0.8,1.1-0.9l0.2-0.1c0.4-0.1,0.7-0.1,1.1,0.1c0.8,0.3,1.5,0.7,1.9,0.9c1.6,0.8,2.8,1.7,3.5,2.8
		c0.7,1.1,1.3,2.8,1.7,5.1c0.4,2.1,1,5.5,1.8,10.3c0.2,1.2,1.6,1.8,2.6,1.1c0.9-0.6,1.5-1.3,1.9-2.1c0.7-1.3,1.1-3.3,1.1-6
		c0-0.9-0.1-1.5-0.2-1.8c-0.2-0.3-0.6-0.6-1.2-1l-1.9-0.9c-0.7-0.4-1.1-1.2-0.8-2c0.9-2.6,1.7-4.7,2.5-6.5h1.2c1.1,0.4,2,0.7,2.7,1
		C116.3,84,117.6,84.9,118.4,86z"/>
	<path class="st1" d="M87.9,49.6c0.7,1.1,1.1,2.6,1.1,4.5c0,1.8-0.4,4.6-1.3,8.5c-0.8,3.6-1.6,6.4-2.4,8.4c-0.1,0.3-0.3,0.5-0.5,0.6
		c-1.8,1.6-4.6,3.2-8.4,4.9c-3.9,1.8-8,3.3-12.3,4.5c-0.2,0-0.3,0.1-0.5,0.1h-0.2c-0.9,0-1.7-0.7-1.7-1.7v-5.8
		c0-0.7,0.5-1.4,1.2-1.6c2.1-0.6,4-1.2,5.6-1.8c0.8-0.3,1.3-1.2,1-2l-3-10.3c-0.3-0.9-0.5-1.5-0.8-1.8s-1-0.9-2.2-1.6L63,54.2
		c-0.6-0.4-0.9-1.2-0.7-1.9c0.7-2,1.4-3.8,2.2-5.5c0.2-0.4,0.6-0.8,1.1-0.9l0.2-0.1c0.4-0.1,0.7-0.1,1.1,0.1
		c0.8,0.3,1.5,0.7,1.9,0.9c1.6,0.8,2.8,1.7,3.5,2.8s1.3,2.8,1.7,5.1c0.4,2.1,1,5.5,1.8,10.3c0.2,1.2,1.6,1.8,2.6,1.1
		c0.9-0.6,1.5-1.3,1.9-2.1c0.7-1.3,1.1-3.3,1.1-6c0-0.9-0.1-1.5-0.2-1.8c-0.2-0.3-0.6-0.6-1.2-1l-1.9-0.9c-0.7-0.4-1.1-1.2-0.8-2
		c0.9-2.6,1.7-4.7,2.5-6.5H81c1.1,0.4,2,0.7,2.7,1C85.9,47.6,87.2,48.5,87.9,49.6z"/>
	<path class="st1" d="M38.8,108L35,95.8c-0.3-0.9-0.6-1.5-0.9-1.9c-0.3-0.4-1.1-0.9-2.4-1.6l-0.6-0.4c-0.7-0.4-1-1.2-0.7-2
		c0.8-2.1,1.6-4,2.5-5.8c0.2-0.4,0.6-0.7,1.1-0.9l0.4-0.1c0.3-0.1,0.7-0.1,1,0.1c0.9,0.4,1.7,0.7,2.2,1c1.8,0.8,3.1,1.8,3.9,2.9
		c0.8,1.1,1.4,2.9,1.9,5.3c0.5,2.2,1.1,5.8,2.1,10.9c0.2,1.2,1.5,1.8,2.5,1.1c1.1-0.7,1.9-1.5,2.4-2.4c0.8-1.4,1.2-3.5,1.3-6.2
		c0-0.9-0.1-1.6-0.3-1.9c-0.2-0.3-0.6-0.7-1.3-1l-2.1-1c-0.8-0.4-1.1-1.3-0.8-2.1c1-2.7,1.9-4.9,2.7-6.7H51c0.2,0,0.4,0,0.5,0.1
		c1.1,0.3,2,0.7,2.7,1c2.1,0.8,3.5,1.7,4.3,2.8c0.8,1.1,1.2,2.7,1.2,4.7c0,1.9-0.5,4.8-1.4,8.8c-0.9,3.8-1.7,6.7-2.6,8.7
		c-0.1,0.3-0.3,0.5-0.5,0.6c-2.1,1.6-7.7,4.6-11.8,6.4c-0.7,0.3-1.5,0-1.7-0.7L38.8,108z"/>
	<path class="st1" d="M80.1,85.1c0.6,0,1-0.1,1.2-0.3c0.3-0.1,0.7-0.4,1.3-0.8l1.2-0.9c2,0.7,3.9,1.7,5.6,2.8l0.2,1.2
		c-0.3,0.7-0.7,1.5-1.3,2.4c-0.8,1.2-1.6,2-2.5,2.4s-2.2,0.6-4,0.5l-9.4-0.3c-1,0-1.8,0.8-1.7,1.8c0.1,2.1,0.3,3.7,0.5,4.9
		c0.3,2.5,0.8,4.5,1.5,6c0.6,1.5,1.5,2.5,2.6,3.2s2.5,1,4.2,1c0.9,0,1.4-0.1,1.7-0.3c0.3-0.2,0.5-0.5,0.8-1.1l0.4-1.1
		c0.3-0.8,1.2-1.2,2-1c2.6,0.8,4.3,1.4,5.3,1.8v1.2l-0.6,2.1c-0.5,1.7-1.1,2.9-2,3.7c-0.9,0.8-2.1,1.2-3.7,1.2
		c-1.9,0-4.6-0.4-8.1-1.3c-3.2-0.8-5.6-1.5-7.2-2.2c-0.3-0.1-0.5-0.3-0.6-0.5c-0.8-1-1.5-2.5-2.2-4.3c-0.7-2-1.3-4.5-1.7-7.3
		c-0.6-3.8-0.9-7.2-0.9-10.1v-1.4c0-0.9,0.6-1.6,1.5-1.7L80.1,85.1z M75.8,94.5c0.2,0,0.5,0.1,0.7,0.2l3.4,1.6
		c0.8,0.4,1.4,0.6,1.7,0.6c0.2,0,0.4-0.1,0.5-0.2c0.1-0.2,0.4-0.5,0.7-0.9l0.4-0.6c0.5-0.7,1.4-0.9,2.2-0.5c1.6,0.9,3,1.7,4.2,2.5
		l0.1,1.2c-0.2,0.4-0.4,0.9-0.8,1.5s-0.7,1.2-1.1,1.7c-0.5,0.6-1,1.1-1.6,1.5c-0.6,0.3-1.2,0.5-1.9,0.5c-1.1,0-2.5-0.4-4.4-1.3
		c-1.6-0.8-3.2-1.6-4.7-2.5c-0.4-0.2-0.7-0.6-0.8-1.1c-0.2-0.8-0.3-1.6-0.4-2.4C74.1,95.4,74.9,94.5,75.8,94.5L75.8,94.5z"/>
</g>
<g>
	<g>
		<path class="st1" d="M94.7,51.6h5.8l-0.4,1.5h-3.4l-0.3,1.3h3L99,55.9h-3l-0.4,1.5h3.6l-0.4,1.5h-6L94.7,51.6z"/>
		<path class="st1" d="M100,57.8l1.7-1c0.5,0.5,1.3,0.9,2,0.9s1.1-0.2,1.1-0.7c0-0.3-0.4-0.5-1.1-0.8l-0.8-0.4
			c-0.9-0.4-1.4-1-1.4-1.9c0-1.4,1.6-2.4,3.5-2.4c1.1,0,2.2,0.4,3,1.2l-1.5,1.1c-0.5-0.4-1-0.7-1.6-0.7c-0.7,0-1,0.3-1,0.6
			s0.4,0.5,1.2,0.8l0.9,0.4c0.9,0.4,1.3,0.9,1.3,1.8c0,1.4-1.4,2.5-3.7,2.5C102.3,59.3,101,58.9,100,57.8z"/>
		<path class="st1" d="M111.1,53.2h-2.4l0.4-1.5h7.2l-0.4,1.5h-2.4l-1.5,6h-2.4L111.1,53.2z"/>
		<path class="st1" d="M115.5,58.3c0-0.6,0.6-1.3,1.6-1.3c0.7,0,1.2,0.4,1.2,1s-0.6,1.3-1.6,1.3C115.9,59.3,115.5,58.9,115.5,58.3z"
			/>
		<path class="st1" d="M92.3,69.9l1.5-0.9c0.5,0.5,1.1,0.8,1.7,0.8c0.8,0,1.4-0.4,1.4-1.2c0-0.6-0.4-0.9-1.1-0.9
			c-0.4,0-0.6,0-1.3,0.3l-0.9-0.6l1.2-3.7h5.3l-0.4,1.6h-3.2l-0.4,1.2c0.3-0.1,0.5-0.1,0.8-0.1c1.4,0,2.5,0.7,2.5,1.9
			c0,1.8-1.9,2.9-3.9,2.9C94.4,71.2,93.2,70.9,92.3,69.9z"/>
		<path class="st1" d="M104.5,65.3h-3.7l0.4-1.5h6.4l-0.3,1.2c-2.8,2-3.5,4.2-4.1,6.2h-2.5C101.6,68.6,102.7,66.7,104.5,65.3z"/>
		<path class="st1" d="M111.4,65.3h-3.7l0.4-1.5h6.4l-0.3,1.2c-2.8,2-3.5,4.2-4.1,6.2h-2.4C108.5,68.6,109.6,66.7,111.4,65.3z"/>
		<path class="st1" d="M113.3,70.2l1.5-1c0.3,0.3,0.6,0.5,1.1,0.5c1.3,0,2.5-1.1,2.5-3.7c0-0.7-0.4-1.1-1-1.1
			c-0.8,0-1.1,0.8-1.1,1.3s0.3,0.8,0.8,0.8c0.4,0,0.8-0.2,1.4-0.7l-0.2,1.3c-0.5,0.4-1.3,0.7-1.8,0.7c-1.3,0-2.3-0.6-2.3-1.9
			c0-1.4,1.4-2.8,3.4-2.8c1.9,0,3,1.1,3,2.7c0,3-2,4.9-4.8,4.9C114.5,71.2,113.7,70.6,113.3,70.2z"/>
	</g>
</g>
<g>
	<path class="st1" d="M-139,56.8v-1.6c0-0.9-0.1-1.6-0.2-1.8s-0.4-0.6-0.9-1.1l-0.5-0.5c-0.4-0.4-0.6-0.9-0.5-1.5
		c0.1-0.8,0.3-1.6,0.5-2.4c0.3-1,0.7-2.3,1.2-4c0.2-0.5,0.6-0.9,1.1-1.1l0.4-0.1c0.3-0.1,0.7-0.1,1.1,0.1l1.7,0.7
		c0.4,0.1,0.9,0.2,1.5,0.2c0.6,0,1.7,0,3.3,0h9.5c2.5,0,4.4,0.4,5.7,1.1c1.3,0.7,2.3,1.9,2.8,3.6c0.5,1.7,0.8,4.1,0.8,7.1
		c0,2.8,0,6.1-0.1,9.9c0,1.5-0.1,2.9-0.1,4.1c-0.1,2.5-2.1,4.5-4.7,4.5h-18.1c-2.6,0-4.7-2.1-4.7-4.7L-139,56.8z M-118.1,64.9V63
		c0-2.3-0.1-4.1-0.2-5.6c-0.1-1.3-0.3-2.3-0.5-2.9c-0.2-0.6-0.6-1.1-1.1-1.3s-1.3-0.4-2.4-0.4h-8c-0.9,0-1.7,0.8-1.7,1.7l0.4,8.7
		c0,0.9,0.8,1.6,1.7,1.6L-118.1,64.9L-118.1,64.9z"/>
	<path class="st1" d="M-52.3,82.7c0.7,1.1,1.1,2.6,1.1,4.5c0,1.8-0.4,4.6-1.3,8.5c-0.8,3.6-1.6,6.4-2.4,8.4
		c-0.1,0.3-0.3,0.5-0.5,0.6c-1.8,1.6-4.6,3.2-8.4,4.9c-3.9,1.8-8,3.3-12.3,4.5c-0.2,0-0.3,0.1-0.5,0.1h-0.2c-0.9,0-1.7-0.7-1.7-1.7
		v-5.8c0-0.7,0.5-1.4,1.2-1.6c2.1-0.6,4-1.2,5.6-1.8c0.8-0.3,1.3-1.2,1-2l-3-10.3c-0.3-0.9-0.5-1.5-0.8-1.8s-1-0.9-2.2-1.6l-0.5-0.3
		c-0.6-0.4-0.9-1.2-0.7-1.9c0.7-2,1.4-3.8,2.2-5.5c0.2-0.4,0.6-0.8,1.1-0.9l0.4,0c0.4-0.1,0.7-0.1,1.1,0.1c0.8,0.3,1.5,0.7,1.9,0.9
		c1.6,0.8,2.8,1.7,3.5,2.8c0.7,1.1,1.3,2.8,1.7,5.1c0.4,2.1,1,5.5,1.8,10.3c0.2,1.2,1.6,1.8,2.6,1.1c0.9-0.6,1.5-1.3,1.9-2.1
		c0.7-1.3,1.1-3.3,1.1-6c0-0.9-0.1-1.5-0.2-1.8c-0.2-0.3-0.6-0.6-1.2-1l-1.9-0.9c-0.7-0.4-1.1-1.2-0.8-2c0.9-2.6,1.7-4.7,2.5-6.5
		h1.2c1.1,0.4,2,0.7,2.7,1C-54.3,80.7-53,81.6-52.3,82.7z"/>
	<path class="st1" d="M-82.8,46.3c0.7,1.1,1.1,2.6,1.1,4.5c0,1.8-0.4,4.6-1.3,8.5c-0.8,3.6-1.6,6.4-2.4,8.4
		c-0.1,0.3-0.3,0.5-0.5,0.6c-1.8,1.6-4.6,3.2-8.4,4.9c-3.9,1.8-8,3.3-12.3,4.5c-0.2,0-0.3,0.1-0.5,0.1h-0.2c-0.9,0-1.7-0.7-1.7-1.7
		v-5.8c0-0.7,0.5-1.4,1.2-1.6c2.1-0.6,4-1.2,5.6-1.8c0.8-0.3,1.3-1.2,1-2l-3-10.3c-0.3-0.9-0.5-1.5-0.8-1.8s-1-0.9-2.2-1.6l-0.5-0.3
		c-0.5-0.4-0.8-1.2-0.5-1.9c0.7-2,1.4-3.8,2.2-5.5c0.2-0.4,0.6-0.8,1.1-0.9l0.2-0.1c0.4-0.1,0.7-0.1,1.1,0.1
		c0.8,0.3,1.5,0.7,1.9,0.9c1.6,0.8,2.8,1.7,3.5,2.8s1.3,2.8,1.7,5.1c0.4,2.1,1,5.5,1.8,10.3c0.2,1.2,1.6,1.8,2.6,1.1
		c0.9-0.6,1.5-1.3,1.9-2.1c0.7-1.3,1.1-3.3,1.1-6c0-0.9-0.1-1.5-0.2-1.8c-0.2-0.3-0.6-0.6-1.2-1l-1.8-0.9c-0.7-0.4-1.1-1.2-0.8-2
		c0.9-2.6,1.7-4.7,2.5-6.5h1.2c1.1,0.4,2,0.7,2.7,1C-84.8,44.3-83.5,45.2-82.8,46.3z"/>
	<path class="st1" d="M-131.8,104.7l-3.8-12.2c-0.3-0.9-0.6-1.5-0.9-1.9c-0.3-0.4-1.1-0.9-2.4-1.6l-0.6-0.4c-0.7-0.4-1-1.2-0.7-2
		c0.8-2.1,1.6-4,2.5-5.8c0.2-0.4,0.6-0.7,1.1-0.9l0.4-0.1c0.3-0.1,0.7-0.1,1,0.1c0.9,0.4,1.7,0.7,2.2,1c1.8,0.8,3.1,1.8,3.9,2.9
		s1.4,2.9,1.9,5.3c0.5,2.2,1.1,5.8,2.1,10.9c0.2,1.2,1.5,1.8,2.5,1.1c1.1-0.7,1.9-1.5,2.4-2.4c0.8-1.4,1.2-3.5,1.3-6.2
		c0-0.9-0.1-1.6-0.3-1.9c-0.2-0.3-0.6-0.7-1.3-1l-2.1-1c-0.8-0.4-1.1-1.3-0.8-2.1c1-2.7,1.9-4.9,2.7-6.7h1.1c0.2,0,0.4,0,0.5,0.1
		c1.1,0.3,2,0.7,2.7,1c2.1,0.8,3.5,1.7,4.3,2.8c0.8,1.1,1.2,2.7,1.2,4.7c0,1.9-0.5,4.8-1.4,8.8c-0.9,3.8-1.7,6.7-2.6,8.7
		c-0.1,0.3-0.3,0.5-0.5,0.6c-2.1,1.6-7.7,4.6-11.8,6.4c-0.7,0.3-1.5,0-1.7-0.7L-131.8,104.7z"/>
	<path class="st1" d="M-90.5,81.8c0.6,0,1-0.1,1.2-0.3c0.3-0.1,0.7-0.4,1.3-0.8l1.2-0.9c2,0.7,3.9,1.7,5.6,2.8l0.2,1.2
		c-0.3,0.7-0.7,1.5-1.3,2.4c-0.8,1.2-1.6,2-2.5,2.4s-2.2,0.6-4,0.5l-9.4-0.3c-1,0-1.8,0.8-1.7,1.8c0.1,2.1,0.3,3.7,0.5,4.9
		c0.3,2.5,0.8,4.5,1.5,6c0.6,1.5,1.5,2.5,2.6,3.2s2.5,1,4.2,1c0.9,0,1.4-0.1,1.7-0.3c0.3-0.2,0.5-0.5,0.8-1.1l0.4-1.1
		c0.3-0.8,1.2-1.2,2-1c2.6,0.8,4.3,1.4,5.3,1.8v1.2l-0.6,2.1c-0.5,1.7-1.1,2.9-2,3.7c-0.9,0.8-2.1,1.2-3.7,1.2
		c-1.9,0-4.6-0.4-8.1-1.3c-3.2-0.8-5.6-1.5-7.2-2.2c-0.3-0.1-0.5-0.3-0.6-0.5c-0.8-1-1.5-2.5-2.2-4.3c-0.7-2-1.3-4.5-1.7-7.3
		c-0.6-3.8-0.9-7.2-0.9-10.1v-1.4c0-0.9,0.6-1.6,1.5-1.7L-90.5,81.8z M-94.8,91.2c0.2,0,0.5,0.1,0.7,0.2l3.4,1.6
		c0.8,0.4,1.4,0.6,1.7,0.6c0.2,0,0.4-0.1,0.5-0.2c0.1-0.2,0.4-0.5,0.7-0.9l0.4-0.6c0.5-0.7,1.4-0.9,2.2-0.5c1.6,0.9,3,1.7,4.2,2.5
		l0.1,1.2c-0.2,0.4-0.4,0.9-0.8,1.5s-0.7,1.2-1.1,1.7c-0.5,0.6-1,1.1-1.6,1.5c-0.6,0.3-1.2,0.5-1.9,0.5c-1.1,0-2.5-0.4-4.4-1.3
		c-1.6-0.8-3.2-1.6-4.7-2.5c-0.4-0.2-0.7-0.6-0.8-1.1c-0.2-0.8-0.3-1.6-0.4-2.4C-96.6,92.1-95.8,91.2-94.8,91.2L-94.8,91.2z"/>
</g>
<g>
	<g>
		<path class="st1" d="M-75.9,48.3h5.8l-0.4,1.5H-74l-0.3,1.3h3l-0.4,1.5h-3l-0.4,1.5h3.6l-0.4,1.5h-6L-75.9,48.3z"/>
		<path class="st1" d="M-70.7,54.5l1.7-1c0.5,0.5,1.3,0.9,2,0.9s1.1-0.2,1.1-0.7c0-0.3-0.4-0.5-1.1-0.8l-0.8-0.4
			c-0.9-0.4-1.4-1-1.4-1.9c0-1.4,1.6-2.4,3.5-2.4c1.1,0,2.2,0.4,3,1.2l-1.5,1.1c-0.5-0.4-1-0.7-1.6-0.7c-0.7,0-1,0.3-1,0.6
			s0.4,0.5,1.2,0.8l0.9,0.4c0.9,0.4,1.3,0.9,1.3,1.8c0,1.4-1.4,2.5-3.7,2.5C-68.4,56-69.7,55.6-70.7,54.5z"/>
		<path class="st1" d="M-59.5,49.9h-2.4l0.4-1.5h7.2l-0.4,1.5h-2.5l-1.5,6h-2.4L-59.5,49.9z"/>
		<path class="st1" d="M-55.2,55c0-0.6,0.6-1.3,1.6-1.3c0.7,0,1.2,0.4,1.2,1S-53,56-54,56C-54.7,56-55.2,55.6-55.2,55z"/>
		<path class="st1" d="M-78.4,66.6l1.5-0.9c0.5,0.5,1.1,0.8,1.7,0.8c0.8,0,1.4-0.4,1.4-1.2c0-0.6-0.4-0.9-1.1-0.9
			c-0.4,0-0.6,0-1.3,0.3l-0.9-0.6l1.2-3.7h5.3l-0.3,1.6h-3.3l-0.4,1.2c0.3-0.1,0.5-0.1,0.8-0.1c1.4,0,2.5,0.7,2.5,1.9
			c0,1.8-1.9,2.9-3.9,2.9C-76.3,67.9-77.4,67.6-78.4,66.6z"/>
		<path class="st1" d="M-66.2,62h-3.7l0.4-1.5h6.4l-0.3,1.2c-2.8,2-3.5,4.2-4.1,6.2h-2.4C-69.1,65.3-68,63.4-66.2,62z"/>
		<path class="st1" d="M-59.2,62h-3.7l0.4-1.5h6.4l-0.3,1.2c-2.8,2-3.5,4.2-4.1,6.2h-2.4C-62.2,65.3-61.1,63.4-59.2,62z"/>
		<path class="st1" d="M-57.4,66.9l1.5-1c0.3,0.3,0.6,0.5,1.1,0.5c1.3,0,2.5-1.1,2.5-3.7c0-0.7-0.4-1.1-1-1.1
			c-0.8,0-1.1,0.8-1.1,1.3s0.3,0.8,0.8,0.8c0.4,0,0.8-0.2,1.4-0.7l-0.2,1.3c-0.5,0.4-1.3,0.7-1.8,0.7c-1.3,0-2.3-0.6-2.3-1.9
			c0-1.4,1.4-2.8,3.4-2.8c1.9,0,3,1.1,3,2.7c0,3-2,4.9-4.8,4.9C-56.2,67.9-57,67.3-57.4,66.9z"/>
	</g>
</g>
</svg>
